@startuml

header Чат проект
title Схема БД

hide circle


entity users {
    * **id**  :  uuid
    --
    * **username**  :  str
    --
    * **auth**  :  str
}

entity chats {
    * **id**  :  uuid
    --
    * **owner**  :  user_id
    --
    * **members** : chat_members_id
    --
    * **title**  :  str
    --
    * **info**  : str
}


entity chat_members {
    * **id** : uuid
    --
    * **chat_id** : uuid
    --
    * **user_id** : uuid
}


entity messages {
    * **id**  :  uuid
    --
    * **user_id**  :  user_id
    --
    * **chat_id**  :  chat_id
    --
    * **creation_at**  :  datetime
    --
    * **text**  :  str
}

users -- chats
chats -- messages
messages -- users
chat_members -- users
chat_members -- chats

@enduml
